<svg width="48" height="48" viewBox="0 0 48 48" fill="none" xmlns="http://www.w3.org/2000/svg">
<path d="M25.9821 9.87653C28.1581 8.81293 29.0518 6.20308 27.9782 4.04727C26.9047 1.89146 24.2704 1.00604 22.0944 2.06964C19.9184 3.13324 19.0247 5.74308 20.0982 7.8989C21.1718 10.0547 23.8061 10.9401 25.9821 9.87653Z" stroke="white" stroke-width="2.5" stroke-miterlimit="10"/>
<path d="M43.8037 45.8976C45.9797 44.834 46.8734 42.2242 45.7999 40.0684C44.7263 37.9125 42.092 37.0271 39.916 38.0907C37.74 39.1543 36.8463 41.7642 37.9199 43.92C38.9934 46.0758 41.6277 46.9612 43.8037 45.8976Z" stroke="white" stroke-width="2.5" stroke-miterlimit="10"/>
<path d="M28.0734 4.00124C26.9741 1.7937 24.2766 0.887035 22.0484 1.97616C19.8201 3.06528 18.905 5.73775 20.0043 7.9453L37.9404 43.9627C39.0397 46.1702 41.7372 47.0769 43.9654 45.9878C46.1937 44.8987 47.1088 42.2262 46.0095 40.0187L28.0734 4.00124Z" stroke="white" stroke-width="2.5" stroke-miterlimit="10"/>
<path d="M28.0707 7.94852C29.1728 5.74231 28.2609 3.06873 26.034 1.97691C23.8071 0.885092 21.1085 1.78849 20.0065 3.9947L1.99544 40.0515C0.893401 42.2577 1.80526 44.9313 4.03214 46.0231C6.25902 47.1149 8.95765 46.2115 10.0597 44.0053L28.0707 7.94852Z" stroke="white" stroke-width="2.5" stroke-miterlimit="10"/>
<path d="M7.97066 45.8963C10.1467 44.8327 11.0404 42.2229 9.96681 40.0671C8.89325 37.9113 6.25896 37.0258 4.08295 38.0894C1.90695 39.153 1.01324 41.7629 2.0868 43.9187C3.16036 46.0745 5.79465 46.9599 7.97066 45.8963Z" stroke="white" stroke-width="2.5" stroke-miterlimit="10"/>
<path d="M12.1561 37.4888C14.3321 36.4252 15.2258 33.8154 14.1522 31.6595C13.0787 29.5037 10.4444 28.6183 8.26838 29.6819C6.09237 30.7455 5.19866 33.3554 6.27222 35.5112C7.34578 37.667 9.98008 38.5524 12.1561 37.4888Z" stroke="white" stroke-width="2.5" stroke-miterlimit="10"/>
<path d="M39.8048 37.4898C41.9808 36.4262 42.8745 33.8164 41.801 31.6606C40.7274 29.5047 38.0931 28.6193 35.9171 29.6829C33.7411 30.7465 32.8474 33.3564 33.921 35.5122C34.9945 37.668 37.6288 38.5534 39.8048 37.4898Z" stroke="white" stroke-width="2.5" stroke-miterlimit="10"/>
<path d="M37.6659 29.1078H10.2969C7.79282 29.1078 5.76288 31.119 5.76288 33.5998C5.76288 36.0806 7.79282 38.0917 10.2969 38.0917H37.6659C40.17 38.0917 42.1999 36.0806 42.1999 33.5998C42.1999 31.119 40.17 29.1078 37.6659 29.1078Z" stroke="white" stroke-width="2.5" stroke-miterlimit="10"/>
</svg>
